:SAMPLES-PER-SECOND 30
:FRAME-RANGE 1-2643
:FULLY-SPECIFIED
:DEGREES
1570
root  23.8051 33.6215 42.6562 -166.835 -58.4535 169.751
RightUpLeg  -31.7185 -3.24748 17.159
RightLeg  55.566 -13.9805 -21.1734
RightFoot  -32.1461 -2.21688 -10.8486
RightToes  7.56698e-010 0 -3.6325e-017
Spine  19.609 -3.27011 -0.493025
Spine1  -1.90384 -2.5783 0.33227
HEad  -13.4728 1.79516 4.03812
LeftShoulder1  1.65856 -1.42061 -27.5765
LeftArm  -13.0263 -24.6711 -36.7018
LeftForeArm  27.7142 2.72003 -15.3292
LeftHand  0.165511 -1.47141 -2.67762
RightShoulder  4.338 4.53134 47.3152
RightArm  26.4622 -10.9299 16.739
RightForeArm  5.17056 36.5646 8.0174
RightHand  -0.0292938 2.60363 -0.632042
LeftUpLeg  -12.8229 -5.15069 12.3267
LeftLeg  72.9573 0.408582 2.50991
LeftFoot  5.38309 1.67359 -11.5784
LeftToes  1.48244e-010 1.61973e-010 3.308e-011
1571
root  21.9285 33.833 41.4192 -167.846 -54.3442 171.088
RightUpLeg  -26.0657 -1.29662 16.9009
RightLeg  53.9635 -13.7707 -19.7638
RightFoot  -34.998 -2.32917 -9.95402
RightToes  7.56698e-010 0 -3.6325e-017
Spine  19.6196 -2.3074 0.598829
Spine1  -1.68594 -1.18878 -2.14904
HEad  -15.1657 1.7082 4.65993
LeftShoulder1  1.47805 -0.798554 -28.2618
LeftArm  -12.6501 -16.2538 -29.9055
LeftForeArm  25.0979 -0.646866 -15.212
LeftHand  0.187423 -1.75247 -2.90335
RightShoulder  4.94176 5.79525 46.547
RightArm  20.5695 -9.24786 16.5624
RightForeArm  11.2164 44.5681 10.2704
RightHand  -0.0560307 2.25876 -1.03881
LeftUpLeg  -21.8536 -4.72579 13.2879
LeftLeg  75.4515 0.706343 4.34357
LeftFoot  0.436253 0.708479 -6.89057
LeftToes  1.48244e-010 1.61973e-010 3.308e-011
1572
root  20.0178 34.2635 39.991 -167.406 -50.5009 170.979
RightUpLeg  -19.5931 0.855501 15.6538
RightLeg  50.1851 -14.1714 -17.8287
RightFoot  -36.7571 -2.23311 -8.76988
RightToes  7.56698e-010 0 -3.6325e-017
Spine  19.0555 -1.31766 0.697759
Spine1  -1.78139 -0.0202739 -4.84607
HEad  -15.895 1.5 5.56694
LeftShoulder1  1.19832 0.0311842 -28.4083
LeftArm  -6.33828 -6.42967 -25.0699
LeftForeArm  15.6259 -8.08486 -13.9551
LeftHand  0.138042 -1.64732 -2.13901
RightShoulder  5.12879 6.47011 44.9864
RightArm  16.4748 -8.79721 16.1435
RightForeArm  18.8905 53.3989 13.6496
RightHand  -0.0448373 2.24944 -0.868936
LeftUpLeg  -29.859 -4.0095 13.2824
LeftLeg  72.1924 0.579328 2.98737
LeftFoot  -3.44995 0.570182 -7.95888
LeftToes  1.48244e-010 1.61973e-010 3.308e-011
1573
root  18.1356 34.8948 38.3982 -165.751 -47.2538 169.448
RightUpLeg  -12.7425 2.65926 13.3251
RightLeg  44.557 -14.6144 -15.2007
RightFoot  -36.6407 -2.02155 -7.87787
RightToes  7.56698e-010 0 -3.6325e-017
Spine  18.1147 -0.17149 -0.357679
Spine1  -2.14794 1.04117 -7.46579
HEad  -15.5048 0.546447 6.42151
LeftShoulder1  0.915565 0.81729 -27.959
LeftArm  -0.501556 2.90781 -22.8925
LeftForeArm  7.58509 -15.1822 -10.227
LeftHand  0.0842546 -1.91154 -1.17926
RightShoulder  4.82287 6.25609 43.1459
RightArm  14.2704 -9.3142 15.2433
RightForeArm  25.1076 61.9468 19.0542
RightHand  -0.048367 1.75459 -0.943472
LeftUpLeg  -35.7437 -2.82465 11.7356
LeftLeg  63.1543 0.580105 1.87317
LeftFoot  -5.05717 0.599392 -10.3471
LeftToes  1.48244e-010 1.61973e-010 3.308e-011
1574
root  16.2963 35.6043 36.7456 -163.498 -44.5958 166.87
RightUpLeg  -6.3093 3.50372 9.98739
RightLeg  38.694 -13.8234 -11.8659
RightFoot  -34.2661 -1.31254 -5.31683
RightToes  7.56698e-010 0 -3.6325e-017
Spine  17.452 1.06568 -2.71789
Spine1  -2.62993 1.92458 -9.28159
HEad  -14.3617 -0.715835 6.68409
LeftShoulder1  0.637296 1.62178 -27.7232
LeftArm  3.93205 10.8659 -22.3485
LeftForeArm  1.55686 -21.9477 -5.36564
LeftHand  0.0433784 -2.13261 -0.49252
RightShoulder  4.18623 5.31246 41.3524
RightArm  13.3627 -10.1246 13.8423
RightForeArm  31.0917 68.9228 27.0802
RightHand  -0.0626982 1.02459 -1.2405
LeftUpLeg  -38.7693 -0.594493 8.18584
LeftLeg  49.1693 1.67918 2.51525
LeftFoot  -6.35273 0.604868 -12.9699
LeftToes  1.48244e-010 1.61973e-010 3.308e-011
1575
root  14.4267 36.2684 35.0397 -162.098 -42.5626 164.689
RightUpLeg  -0.125902 1.9729 6.35127
RightLeg  33.4888 -11.1603 -8.09613
RightFoot  -30.1363 -0.585479 -2.30016
RightToes  7.56698e-010 0 -3.6325e-017
Spine  16.412 1.97567 -5.07207
Spine1  -1.92135 2.77414 -10.4656
HEad  -13.1502 -1.8348 6.33782
LeftShoulder1  0.347444 2.47656 -27.6685
LeftArm  -5.7323 18.1919 -23.6098
LeftForeArm  9.56138 -28.7197 -5.70159
LeftHand  -0.012198 -2.34969 0.375572
RightShoulder  3.4862 4.01959 40.2864
RightArm  13.1286 -10.6057 12.4229
RightForeArm  35.8063 72.8836 35.3833
RightHand  -0.0921776 0.681753 -1.84198
LeftUpLeg  -38.1576 3.04203 3.281
LeftLeg  32.4445 2.12679 1.80629
LeftFoot  -7.04134 0.680377 -16.8998
LeftToes  1.48244e-010 1.61973e-010 3.308e-011
1576
root  12.3758 36.539 33.2848 -162.851 -41.3693 165.029
RightUpLeg  4.89443 0.284042 4.57793
RightLeg  31.7177 -8.12461 -5.62458
RightFoot  -24.7219 0.140206 2.62407
RightToes  7.56698e-010 0 -3.6325e-017
Spine  14.7502 2.44466 -5.20008
Spine1  -1.36118 3.4409 -10.5822
HEad  -9.90522 -2.88746 5.33514
LeftShoulder1  0.0414899 3.38316 -28.2285
LeftArm  -15.0557 24.6459 -26.9866
LeftForeArm  16.2308 -36.5607 -7.33816
LeftHand  -0.0451236 -2.37634 0.870235
RightShoulder  2.24736 1.48486 39.116
RightArm  13.8144 -11.646 12.8576
RightForeArm  36.0724 73.2071 36.3564
RightHand  -0.123267 0.928327 -2.36732
LeftUpLeg  -36.4067 8.47166 -1.17726
LeftLeg  20.3316 -2.25561 -0.598485
LeftFoot  -5.12398 1.22471 -21.7548
LeftToes  1.48244e-010 1.61973e-010 3.308e-011
1577
root  10.3305 36.4712 31.545 -164.753 -40.3008 166.736
RightUpLeg  5.58364 -0.619747 4.05374
RightLeg  38.1596 -5.8833 -5.20683
RightFoot  -16.2906 0.119883 5.32706
RightToes  7.56698e-010 0 -3.6325e-017
Spine  13.46 2.60508 -4.36099
Spine1  -1.51769 3.89678 -10.5066
HEad  -6.05932 -3.94937 5.26248
LeftShoulder1  -0.0345673 3.60291 -28.7406
LeftArm  -20.45 28.3984 -30.5563
LeftForeArm  19.0439 -42.6598 -9.04286
LeftHand  0.000921379 -2.84837 0.205449
RightShoulder  1.16015 -0.897657 38.8026
RightArm  15.3157 -13.5635 13.2691
RightForeArm  31.891 71.018 31.2053
RightHand  -0.125257 1.04453 -2.37145
LeftUpLeg  -35.1613 10.1961 -2.36097
LeftLeg  18.0297 -9.03428 -2.97248
LeftFoot  4.79193 2.78634 -19.6972
LeftToes  1.48244e-010 1.61973e-010 3.308e-011
1578
root  8.37103 35.9961 29.8819 -166.806 -38.7068 166.78
RightUpLeg  1.92241 -0.37403 2.89197
RightLeg  52.964 -5.20154 -7.7431
RightFoot  -3.76425 -0.158977 2.0131
RightToes  7.56698e-010 0 -3.6325e-017
Spine  14.7946 2.40566 -5.26221
Spine1  -2.9181 3.21031 -9.39534
HEad  -4.52057 -3.69144 5.78807
LeftShoulder1  0.158117 3.06855 -30.2085
LeftArm  -20.1324 26.5922 -30.7525
LeftForeArm  21.5071 -45.0918 -9.73185
LeftHand  0.0141894 -2.98569 0.028054
RightShoulder  0.846871 -1.64306 39.952
RightArm  17.1192 -14.7525 13.1534
RightForeArm  24.7602 66.0921 23.7084
RightHand  -0.133655 1.28506 -2.45422
LeftUpLeg  -34.774 6.47801 -0.38856
LeftLeg  30.3306 -4.31191 -2.37538
LeftFoot  -1.5149 1.47797 -16.9831
LeftToes  1.48244e-010 1.61973e-010 3.308e-011
1579
root  6.84992 35.4755 28.3567 -167.364 -36.8348 163.809
RightUpLeg  -3.58098 -0.0471727 -0.0196312
RightLeg  68.4583 -5.34908 -15.3823
RightFoot  -3.2441 0.0460229 -0.9611
RightToes  7.56698e-010 0 -3.6325e-017
Spine  16.3526 1.96671 -9.8176
Spine1  -1.7749 1.87167 -8.3615
HEad  -5.39656 -2.04214 6.65146
LeftShoulder1  0.469742 2.26456 -31.8128
LeftArm  -17.2509 18.5814 -28.5721
LeftForeArm  22.6844 -43.827 -9.19553
LeftHand  -0.0207611 -3.00927 0.513944
RightShoulder  1.49085 -0.430023 42.5219
RightArm  18.9075 -14.2749 13.9508
RightForeArm  17.1372 56.8284 15.8824
RightHand  -0.126379 1.66055 -2.23554
LeftUpLeg  -32.2533 5.9733 -2.37008
LeftLeg  38.0547 -3.09707 -2.21929
LeftFoot  -7.83507 0.542042 -16.093
LeftToes  1.48244e-010 1.61973e-010 3.308e-011
